<svg width="46.20" height="56.20" viewBox="18.80 71.90 46.20 56.20" fill="none" xmlns="http://www.w3.org/2000/svg" xmlns:xlink="http://www.w3.org/1999/xlink"><defs><clipPath id="halfclip38"><rect x="0" y="71.0" width="84.0" height="71.0"/></clipPath></defs><g clip-path="url(#halfclip38)">

<g clip-path="url(#clip0_434_2858)">
<path d="M32.3749 23.6667C29.5947 23.6667 27.3333 25.9282 27.3333 28.7084V54.3751V55.2917C27.3333 58.0599 29.6068 60.3334 32.3749 60.3334H34.6666V62.6251C34.6666 63.1146 34.9261 63.5673 35.3487 63.8139C35.7722 64.0605 36.2948 64.0612 36.7201 63.821L38.7916 62.6448L40.863 63.821C41.073 63.9402 41.3069 64.0001 41.5416 64.0001C41.7808 64.0001 42.02 63.9385 42.2345 63.8139C42.657 63.5673 42.9166 63.1146 42.9166 62.6251V60.3334H56.2083C56.3905 60.336 56.5714 60.3023 56.7404 60.2344C56.9095 60.1664 57.0634 60.0656 57.1932 59.9376C57.3229 59.8097 57.426 59.6572 57.4963 59.4891C57.5666 59.321 57.6028 59.1406 57.6028 58.9584C57.6028 58.7762 57.5666 58.5958 57.4963 58.4277C57.426 58.2596 57.3229 58.1071 57.1932 57.9792C57.0634 57.8513 56.9095 57.7504 56.7404 57.6824C56.5714 57.6145 56.3905 57.5808 56.2083 57.5834H42.9166V55.7501H56.2083C56.9682 55.7501 57.5833 55.135 57.5833 54.3751V28.7084C57.5833 25.9291 55.3209 23.6667 52.5416 23.6667H32.3749ZM32.3749 26.4167H47.4999V53.0001H30.0833V28.7084C30.0833 27.4452 31.1118 26.4167 32.3749 26.4167ZM50.2499 26.4167H52.5416C53.8057 26.4167 54.8333 27.4443 54.8333 28.7084V53.0001H50.2499V26.4167ZM30.1298 55.7501H34.6666V57.5834H32.3749C31.2504 57.5834 30.3374 56.8064 30.1298 55.7501Z" fill="white"/>
</g>
<g clip-path="url(#clip1_434_2858)">

<path d="M32.0417 80C29.2614 80 27 82.2614 27 85.0417V110.709V111.625C27 114.394 29.2736 116.667 32.0417 116.667H34.3334V118.959C34.3334 119.448 34.593 119.901 35.0156 120.148C35.4391 120.394 35.9608 120.395 36.387 120.155L38.4585 118.979L40.53 120.155C40.7399 120.274 40.9739 120.334 41.2085 120.334C41.4478 120.334 41.6869 120.272 41.9014 120.148C42.324 119.901 42.5835 119.448 42.5835 118.959V116.667H55.8754C56.0576 116.67 56.2385 116.636 56.4076 116.568C56.5767 116.5 56.7306 116.399 56.8603 116.271C56.9901 116.143 57.0931 115.991 57.1635 115.823C57.2338 115.655 57.27 115.474 57.27 115.292C57.27 115.11 57.2338 114.93 57.1635 114.761C57.0931 114.593 56.9901 114.441 56.8603 114.313C56.7306 114.185 56.5767 114.084 56.4076 114.016C56.2385 113.948 56.0576 113.915 55.8754 113.917H42.5835V112.084H47.1669V80H32.0417ZM49.917 80V112.084H55.8754C56.6353 112.084 57.2504 111.469 57.2504 110.709V85.0417C57.2504 82.2614 54.989 80 52.2087 80H49.917ZM29.7966 112.084H34.3334V113.917H32.0417C30.9172 113.917 30.0042 113.14 29.7966 112.084Z" fill="#8B7CF6"/>

</g>
<defs>

<clipPath id="clip0_434_2858">
<rect width="44" height="44" fill="white" transform="translate(20 20)"/>
</clipPath>
<clipPath id="clip1_434_2858">
<rect width="44" height="44" fill="white" transform="translate(20 78)"/>
</clipPath>
</defs>
</g></svg>